<svg width="24" height="31" viewBox="0 0 24 31" fill="none" xmlns="http://www.w3.org/2000/svg">
<path d="M11.2429 0.311974C11.661 -0.103991 12.339 -0.103992 12.7571 0.311973L23.6842 11.1817C24.3588 11.8527 23.881 13 22.9271 13H1.07291C0.118961 13 -0.358778 11.8527 0.315767 11.1817L11.2429 0.311974Z" fill="#202840"/>
<path fill-rule="evenodd" clip-rule="evenodd" d="M2 17.1333C2 15.9551 2.89543 15 4 15H20C21.1046 15 22 15.9551 22 17.1333V28.8667C22 30.0449 21.1046 31 20 31H4C2.89543 31 2 30.0449 2 28.8667V17.1333ZM9 19C8.44772 19 8 19.4477 8 20V26C8 26.5523 8.44772 27 9 27H15C15.5523 27 16 26.5523 16 26V20C16 19.4477 15.5523 19 15 19H9Z" fill="#202840"/>
</svg>
